<?xml version="1.0" encoding="utf-8"?>
<!-- Generator: Adobe Illustrator 25.4.1, SVG Export Plug-In . SVG Version: 6.00 Build 0)  -->
<svg version="1.1" id="Layer_1" xmlns="http://www.w3.org/2000/svg" xmlns:xlink="http://www.w3.org/1999/xlink" x="0px" y="0px"
	 viewBox="0 0 201.08 178.49" style="enable-background:new 0 0 201.08 178.49;" xml:space="preserve">
<style type="text/css">
	.st0{fill:#98999B;}
</style>
<path id="Path_5769" class="st0" d="M164.66,24c1.22-8.72-5.85-9.56-10.51-7.73c-1.57,0.64-3.07,1.42-4.49,2.33l0,0
	c-15.09,8.86-30.16,17.76-45.28,26.57c-16.14,9.41-32.3,18.77-48.49,28.08c-1.1,0.63-2.29,1.1-3.44,1.65
	c-8.86,5.13-17.72,10.27-26.58,15.41c-1.59,0.93-7.56,3.7-5.91,9.01c0.26,0.61,0,2.61,6.99,5.67c8.18,3.58,16.39,7.11,24.58,10.68
	l2.61,1.19c4.5-4.4,43.34-38.43,57.55-50.95c7.38-6.5,14.7-13.07,22.08-19.55c0.97-0.85,2.07-2.49,3.56-0.86
	c1.3,1.41-0.29,2.33-1.02,3.22c-14.96,18.32-58.48,71.27-64.62,78.91c-1.41,1.59-2.16,3.66-2.1,5.78
	c0.14,5.69,0.08,11.38,0.02,17.07c-0.14,13.89,5.17,14.54,11.33,7.81l0.72-0.6c5.24-6.56,10.58-13.04,15.68-19.71
	c1.65-2.15,3.07-2.23,5.38-1.23c10.05,4.38,20.15,8.64,30.28,12.85c6.38,2.65,10.1,0.58,11.26-6.34
	c5.63-33.56,11.24-67.13,16.82-100.7c0.03-0.13,0.79-3.15,2.82-14.21c0.21-1.14,0.43-2.37,0.67-3.68c0.04-0.23,0.07-0.44,0.1-0.66
	L164.66,24L164.66,24z"/>
</svg>
