<?xml version="1.0" encoding="utf-8"?>
<!-- Generator: Adobe Illustrator 26.4.0, SVG Export Plug-In . SVG Version: 6.00 Build 0)  -->
<svg version="1.1" id="Layer_1" xmlns="http://www.w3.org/2000/svg" xmlns:xlink="http://www.w3.org/1999/xlink" x="0px" y="0px"
	 viewBox="0 0 635.4 333.5" style="enable-background:new 0 0 635.4 333.5;" xml:space="preserve">
<style type="text/css">
	.st0{fill:#24272A;}
	.st1{fill:#F2C300;}
</style>
<g>
	<g>
		<path class="st0" d="M8.1,219.3H3.3v-1.9H15v1.9h-4.7v19H8.1V219.3z"/>
		<path class="st0" d="M29.7,238.3h-2v-2.9h-0.1c-1.1,2.2-3.5,3.3-5.9,3.3c-2.3,0-4.8-1-6.8-3.3c-0.6-0.6-1.5-2.6-1.5-4.9
			c0-2.1,0.9-4,2.2-5.4c1.5-1.5,3.4-2.5,6-2.5c2.4,0,4.9,1.1,6,3.3h0.1v-2.9h2C29.7,222.8,29.7,238.3,29.7,238.3z M15.5,230.6
			c0,3.4,2.9,6,6.2,6c3.2,0,6-2.8,6-6c0-3.4-2.6-6.1-6-6.1C18.3,224.5,15.5,227.2,15.5,230.6z"/>
		<path class="st0" d="M32.8,217.4h2.1v14.6l7.1-9.2h2.7l-6,7.7l6.4,7.7h-2.7l-5-6.1l-2.5,3.2v2.9h-2.1
			C32.8,238.3,32.8,217.4,32.8,217.4z"/>
		<path class="st0" d="M47.6,231.3c0.1,2.9,3,5.3,5.8,5.3c2.3,0,4.6-1.3,5.5-3.4h2.2c-1.1,3.1-4.2,5.4-7.5,5.4
			c-4.5,0-8.1-3.6-8.1-8.1c0-4.5,3.6-8.1,8-8.1c2.4,0,4.7,1.1,6.2,3c1.4,1.8,1.8,3.6,1.8,5.8L47.6,231.3L47.6,231.3L47.6,231.3z
			 M59.5,229.4c-0.5-2.7-3.1-4.9-5.9-4.9c-2.9,0-5.5,2.1-6,4.9H59.5z"/>
		<path class="st0" d="M86.8,233.8c-1.4,3-4.2,4.9-7.5,4.9c-4.6,0-8.4-3.4-8.4-8.1c0-4.6,3.9-8,8.4-8c3.3,0,6.4,1.9,7.6,5h-2.3
			c-1.1-1.8-3.1-3-5.2-3c-3.4,0-6.3,2.5-6.3,6c0,3.4,2.7,6.1,6.1,6.1c2.4,0,4.1-1,5.4-2.9L86.8,233.8L86.8,233.8L86.8,233.8z"/>
		<path class="st0" d="M104.8,230.5c0,4.4-3.6,8.2-8,8.2c-4.4,0-8.1-3.6-8.1-8c0-4.5,3.6-8.2,8.1-8.2
			C101.1,222.5,104.8,226.2,104.8,230.5z M90.8,230.6c0,3.3,2.7,6,6,6c3.4,0,5.9-2.8,5.9-6.2c0-1.7-0.6-3.1-1.8-4.3
			c-1.1-1-2.6-1.7-4.1-1.7C93.4,224.5,90.8,227.3,90.8,230.6z"/>
		<path class="st0" d="M107.3,222.8h2v2.2h0.1c1.1-1.7,2.7-2.6,4.7-2.6c2.1,0,4.1,0.9,5.5,2.6c1.2,1.5,1.4,3.1,1.4,5.1v8.1h-2.1
			v-8.1c0-1.3-0.1-2.6-0.9-3.7c-0.9-1.3-2.4-2-4-2c-1.4,0-2.9,0.7-3.8,1.9c-0.8,1.1-0.8,2.5-0.8,3.8v8.1h-2.1L107.3,222.8
			L107.3,222.8z"/>
		<path class="st0" d="M125.9,224.7h-3.2v-1.9h3.2v-5.4h2.1v5.4h3.6v1.9H128v13.6h-2.1V224.7z"/>
		<path class="st0" d="M133.3,222.8h2v2.2h0.1c0.8-1.8,2.5-2.5,4.4-2.6v2.1c-1.1,0.1-1.9,0.3-2.8,1.1c-1.4,1.2-1.6,2.3-1.6,4v8.6
			h-2.1V222.8z"/>
		<path class="st0" d="M156.3,230.5c0,4.4-3.6,8.2-8,8.2c-4.4,0-8.1-3.6-8.1-8c0-4.5,3.6-8.2,8.1-8.2
			C152.6,222.5,156.3,226.2,156.3,230.5z M142.3,230.6c0,3.3,2.7,6,6,6c3.4,0,5.9-2.8,5.9-6.2c0-1.7-0.6-3.1-1.8-4.3
			c-1.1-1-2.6-1.7-4.1-1.7C144.9,224.5,142.3,227.3,142.3,230.6z"/>
		<path class="st0" d="M158.8,217.4h2.1v20.9h-2.1V217.4z"/>
		<path class="st0" d="M187.1,230.5c0,4.6-3.8,8.3-8.4,8.3c-4.5,0-8.3-3.8-8.3-8.3c0-4.7,3.8-8.4,8.4-8.4
			C183.5,222.1,187.1,225.9,187.1,230.5z M175.6,227.2c-0.9,0.9-1.3,2-1.3,3.2c0,2.5,2,4.6,4.5,4.6c2.6,0,4.6-2,4.6-4.6
			c0-2.6-2-4.7-4.6-4.7C177.6,225.8,176.4,226.4,175.6,227.2z"/>
		<path class="st0" d="M188.9,226h-1.3v-3.3h1.3c0.1-3,2-5.6,5.1-5.6l1,0.1v3.7c-1.5,0-2.3,0.1-2.4,1.8h2.2v3.3h-2.2v12.3h-3.8
			L188.9,226L188.9,226z"/>
		<path class="st0" d="M208.1,236.8l-5.7-14.2h4.3l3.6,10l3.8-10h4.3l-9,20.9h-4L208.1,236.8z"/>
		<path class="st0" d="M234.7,230.5c0,4.6-3.8,8.3-8.4,8.3c-4.5,0-8.3-3.8-8.3-8.3c0-4.7,3.8-8.4,8.4-8.4
			C231.1,222.1,234.7,225.9,234.7,230.5z M223.2,227.2c-0.9,0.9-1.3,2-1.3,3.2c0,2.5,2,4.6,4.5,4.6c2.6,0,4.6-2,4.6-4.6
			c0-2.6-2-4.7-4.6-4.7C225.2,225.8,224,226.4,223.2,227.2z"/>
		<path class="st0" d="M250.3,222.6v15.6h-3.4v-1.7h-0.1c-0.8,1.5-2.3,2.2-4,2.2c-1.9,0-3.6-0.7-4.9-2.2c-1.4-1.5-1.5-3.1-1.5-5.1
			v-8.8h3.8v7.7c0,1,0,2.3,0.5,3.2c0.5,1,1.5,1.6,2.7,1.6c2.9,0,3.2-2.6,3.2-4.8v-7.7L250.3,222.6L250.3,222.6z"/>
		<path class="st0" d="M252.9,222.6h3.4v1.4h0.1c0.8-1.3,1.8-1.9,3.4-1.9h0.3v3.6c-0.8,0-1.7,0.2-2.3,0.7c-1.1,0.9-1.1,2-1.1,3.3
			v8.4h-3.8L252.9,222.6L252.9,222.6z"/>
		<path class="st0" d="M269,222.6h3.4v1.4h0.1c0.8-1.3,1.8-1.9,3.4-1.9h0.3v3.6c-0.8,0-1.7,0.2-2.3,0.7c-1.1,0.9-1.1,2-1.1,3.3v8.4
			H269L269,222.6L269,222.6z"/>
		<path class="st0" d="M293.1,230.5c0,4.6-3.8,8.3-8.4,8.3c-4.5,0-8.3-3.8-8.3-8.3c0-4.7,3.8-8.4,8.4-8.4
			C289.6,222.1,293.1,225.9,293.1,230.5z M281.6,227.2c-0.9,0.9-1.3,2-1.3,3.2c0,2.5,2,4.6,4.5,4.6c2.6,0,4.6-2,4.6-4.6
			c0-2.6-2-4.7-4.6-4.7C283.6,225.8,282.4,226.4,281.6,227.2z"/>
		<path class="st0" d="M294.8,217.4h3.8v20.9h-3.8V217.4z"/>
		<path class="st0" d="M304.5,232.1c0.6,1.8,2.2,3,4.1,3c1.4,0,2.8-0.5,3.5-1.4h4.1c-1,2.8-4.2,5-7.5,5c-4.5,0-8.2-3.7-8.2-8.2
			c0-4.6,3.6-8.4,8.3-8.4c4.5,0,8,3.8,8,8.2c0,0.6-0.1,1.2-0.2,1.8H304.5z M313,228.8c-0.6-1.9-2.3-3-4.3-3c-1.9,0-3.8,1.2-4.4,3
			H313z"/>
	</g>
	<path class="st1" d="M27.6,90.1v57.4c0,6.4,0.4,18.1,12.3,18.1c12.1,0,12.1-10.5,12.1-18.1V90.1h24.3v57.4c0,15.9-3.5,23-9.5,29.2
		C60.7,183,52.1,187,40.2,187c-6.9,0-19.5-1.7-27.4-10.1c-7.8-8.6-9.5-15.3-9.5-29.3V90.1H27.6z"/>
	<path class="st1" d="M87.9,113.8H108v7.8h0.1h0.3c4.2-5.4,11.3-10.3,22.2-10.3c25.3,0,34.8,22.2,34.8,38.8
		c0,20.6-14.4,37.4-34.7,37.4c-12.9,0-18.9-6.2-21.5-8.9v30.2H87.9L87.9,113.8C87.9,113.8,87.9,113.8,87.9,113.8z M144.1,149.6
		c0-8.5-6.2-18.2-17.9-18.2c-11.7,0-17.9,9.8-17.9,18.2c0,9,6.7,18.1,17.9,18.1C137.4,167.7,144.1,158.6,144.1,149.6z"/>
	<path class="st0" d="M173.9,90.1H204c16.7,0,23.1,2.1,29.3,6.8c7.8,6.2,11.7,16.2,11.7,26c0,10.9-5.7,27-23.6,30l25.8,32.4h-27.8
		l-22-30.7h-0.3v30.7h-23.3L173.9,90.1L173.9,90.1z M197.2,137.9h8.6c14.3,0,15.9-9,15.9-13.6c0-8.6-6.3-12.8-15.7-12.8h-8.9V137.9z
		"/>
	<path class="st0" d="M327.4,185.2H306v-7.7h-0.3c-3.6,6.9-12.5,10.1-20.8,10.1c-22.6,0-35.9-17.7-35.9-38.2c0-23.4,16.8-38,35.9-38
		c11.7,0,18.2,5.7,20.8,10h0.3v-7.6h21.3V185.2z M288.2,167.7c13.4,0,17.9-11.3,17.9-18.2c0-8.6-5.9-18.1-18-18.1
		c-12.2,0-17.6,10.3-17.6,18.4C270.4,156.4,275.3,167.7,288.2,167.7z"/>
	<path class="st0" d="M364.6,113.8h10.3V130h-10.3v55.1h-21.3V130h-10.5v-16.2h10.5V90.1h21.3V113.8z"/>
	<path class="st0" d="M448.4,162.8c-3.5,8-8.5,14.1-14.5,18.2c-5.9,4.2-13,6.4-20.3,6.4c-20.4,0-37.8-16.6-37.8-37.8
		c0-19.9,15.7-38.3,37.4-38.3c21.7,0,37.7,17.2,37.7,38.9c0,2.8-0.3,4-0.5,5.7h-53.5c1.3,8.5,8.4,13.5,16.7,13.5c6.5,0,10-3,13-6.7
		L448.4,162.8L448.4,162.8z M429.5,141.6c-0.9-4.2-5.1-12.2-16.2-12.2s-15.3,8-16.2,12.2H429.5z"/>
</g>
</svg>
