<?xml version="1.0" encoding="utf-8"?>
<!-- Generator: Adobe Illustrator 25.4.1, SVG Export Plug-In . SVG Version: 6.00 Build 0)  -->
<svg version="1.1" id="Layer_1" xmlns="http://www.w3.org/2000/svg" xmlns:xlink="http://www.w3.org/1999/xlink" x="0px" y="0px"
	 viewBox="0 0 635.41 333.55" style="enable-background:new 0 0 635.41 333.55;" xml:space="preserve">
<style type="text/css">
	.st0{fill:#24272A;}
	.st1{fill:#F2C300;}
</style>
<g>
	<g>
		<path class="st0" d="M98.74,219.31h-4.8v-1.89h11.63v1.89h-4.74v18.96h-2.09V219.31z"/>
		<path class="st0" d="M120.3,238.27h-2v-2.91h-0.06c-1.13,2.17-3.5,3.27-5.93,3.27c-2.31,0-4.82-1.02-6.8-3.27
			c-0.56-0.62-1.52-2.57-1.52-4.91c0-2.12,0.88-4.01,2.23-5.42c1.47-1.52,3.41-2.54,6.04-2.54c2.43,0,4.88,1.07,5.98,3.27h0.06
			v-2.93h2C120.3,222.83,120.3,238.27,120.3,238.27z M106.08,230.62c0,3.39,2.93,6.01,6.24,6.01c3.22,0,5.98-2.77,5.98-5.98
			c0-3.41-2.6-6.15-6.04-6.15C108.87,224.5,106.08,227.21,106.08,230.62z"/>
		<path class="st0" d="M123.43,217.42h2.09v14.65l7.08-9.23h2.68l-5.98,7.73l6.38,7.7H133l-5.02-6.1l-2.46,3.16v2.93h-2.09
			C123.43,238.26,123.43,217.42,123.43,217.42z"/>
		<path class="st0" d="M138.25,231.3c0.11,2.93,2.96,5.33,5.81,5.33c2.29,0,4.6-1.27,5.53-3.39h2.17c-1.07,3.1-4.23,5.39-7.51,5.39
			c-4.52,0-8.1-3.56-8.1-8.07c0-4.49,3.56-8.07,8.04-8.07c2.43,0,4.66,1.1,6.21,2.99c1.44,1.78,1.75,3.58,1.81,5.81h-13.96V231.3z
			 M150.13,229.41c-0.54-2.74-3.05-4.91-5.9-4.91c-2.91,0-5.47,2.06-5.98,4.91H150.13z"/>
		<path class="st0" d="M177.41,233.76c-1.38,3.02-4.18,4.88-7.51,4.88c-4.6,0-8.44-3.39-8.44-8.1c0-4.57,3.9-8.04,8.35-8.04
			c3.27,0,6.43,1.92,7.62,5.02h-2.34c-1.07-1.83-3.13-3.02-5.25-3.02c-3.41,0-6.29,2.54-6.29,6.01c0,3.41,2.68,6.12,6.12,6.12
			c2.4,0,4.06-0.99,5.42-2.88h2.32V233.76z"/>
		<path class="st0" d="M195.41,230.46c0,4.4-3.56,8.18-8.01,8.18c-4.37,0-8.1-3.56-8.1-7.99c0-4.49,3.58-8.16,8.1-8.16
			C191.68,222.5,195.41,226.17,195.41,230.46z M181.38,230.65c0,3.3,2.71,5.98,6.01,5.98c3.44,0,5.93-2.82,5.93-6.18
			c0-1.69-0.56-3.08-1.81-4.26c-1.1-1.04-2.6-1.69-4.12-1.69C183.98,224.5,181.38,227.29,181.38,230.65z"/>
		<path class="st0" d="M197.94,222.84h1.97v2.23h0.06c1.13-1.67,2.71-2.57,4.74-2.57c2.06,0,4.09,0.9,5.47,2.57
			c1.19,1.5,1.41,3.13,1.41,5.08v8.13h-2.09v-8.13c0-1.33-0.11-2.57-0.9-3.67c-0.93-1.3-2.4-1.97-3.98-1.97
			c-1.44,0-2.93,0.7-3.78,1.89c-0.82,1.1-0.79,2.46-0.82,3.75v8.13h-2.09L197.94,222.84L197.94,222.84z"/>
		<path class="st0" d="M216.51,224.73h-3.22v-1.89h3.22v-5.42h2.09v5.42h3.58v1.89h-3.58v13.55h-2.09V224.73z"/>
		<path class="st0" d="M223.87,222.84h1.97v2.23h0.06c0.76-1.83,2.54-2.51,4.43-2.57v2.06c-1.13,0.09-1.92,0.34-2.79,1.07
			c-1.44,1.21-1.58,2.26-1.58,4.01v8.64h-2.09V222.84z"/>
		<path class="st0" d="M246.9,230.46c0,4.4-3.56,8.18-8.01,8.18c-4.37,0-8.1-3.56-8.1-7.99c0-4.49,3.58-8.16,8.1-8.16
			C243.18,222.5,246.9,226.17,246.9,230.46z M232.88,230.65c0,3.3,2.71,5.98,6.01,5.98c3.44,0,5.93-2.82,5.93-6.18
			c0-1.69-0.56-3.08-1.81-4.26c-1.1-1.04-2.6-1.69-4.12-1.69C235.47,224.5,232.88,227.29,232.88,230.65z"/>
		<path class="st0" d="M249.44,217.42h2.09v20.86h-2.09V217.42z"/>
		<path class="st0" d="M277.74,230.48c0,4.63-3.75,8.3-8.35,8.3c-4.52,0-8.27-3.75-8.27-8.3c0-4.68,3.75-8.35,8.44-8.35
			C274.15,222.13,277.74,225.94,277.74,230.48z M266.17,227.24c-0.87,0.88-1.3,2-1.3,3.24c0,2.51,1.95,4.63,4.52,4.63
			c2.65,0,4.6-2,4.6-4.63c0-2.57-2-4.68-4.6-4.68C268.23,225.8,266.96,226.39,266.17,227.24z"/>
		<path class="st0" d="M279.51,225.97h-1.33v-3.33h1.33c0.08-2.96,1.95-5.62,5.11-5.62l1.02,0.06v3.73c-1.55,0-2.26,0.11-2.37,1.84
			h2.17v3.33h-2.17v12.3h-3.75L279.51,225.97L279.51,225.97z"/>
		<path class="st0" d="M298.67,236.8l-5.73-14.17h4.26l3.58,10.02l3.75-10.02h4.26l-8.97,20.86h-4.03L298.67,236.8z"/>
		<path class="st0" d="M325.34,230.48c0,4.63-3.75,8.3-8.35,8.3c-4.52,0-8.27-3.75-8.27-8.3c0-4.68,3.75-8.35,8.44-8.35
			C321.75,222.13,325.34,225.94,325.34,230.48z M313.77,227.24c-0.87,0.88-1.3,2-1.3,3.24c0,2.51,1.95,4.63,4.52,4.63
			c2.65,0,4.6-2,4.6-4.63c0-2.57-2-4.68-4.6-4.68C315.83,225.8,314.56,226.39,313.77,227.24z"/>
		<path class="st0" d="M340.94,222.64v15.63h-3.44v-1.67h-0.06c-0.79,1.52-2.26,2.17-3.98,2.17c-1.86,0-3.64-0.71-4.94-2.17
			c-1.41-1.5-1.5-3.13-1.5-5.14v-8.83h3.75v7.68c0,0.96,0.03,2.29,0.48,3.19c0.51,1.02,1.52,1.61,2.68,1.61
			c2.85,0,3.24-2.57,3.24-4.8v-7.68L340.94,222.64L340.94,222.64z"/>
		<path class="st0" d="M343.53,222.64h3.41v1.41H347c0.82-1.33,1.81-1.92,3.36-1.92h0.28v3.64c-0.76,0-1.67,0.25-2.29,0.73
			c-1.07,0.87-1.1,2.03-1.07,3.33v8.44h-3.75L343.53,222.64L343.53,222.64z"/>
		<path class="st0" d="M359.61,222.64h3.41v1.41h0.06c0.82-1.33,1.81-1.92,3.36-1.92h0.28v3.64c-0.76,0-1.67,0.25-2.29,0.73
			c-1.07,0.87-1.1,2.03-1.07,3.33v8.44h-3.75L359.61,222.64L359.61,222.64z"/>
		<path class="st0" d="M383.74,230.48c0,4.63-3.75,8.3-8.35,8.3c-4.52,0-8.27-3.75-8.27-8.3c0-4.68,3.75-8.35,8.44-8.35
			C380.16,222.13,383.74,225.94,383.74,230.48z M372.17,227.24c-0.87,0.88-1.3,2-1.3,3.24c0,2.51,1.95,4.63,4.52,4.63
			c2.65,0,4.6-2,4.6-4.63c0-2.57-2-4.68-4.6-4.68C374.23,225.8,372.96,226.39,372.17,227.24z"/>
		<path class="st0" d="M385.43,217.42h3.75v20.86h-3.75V217.42z"/>
		<path class="st0" d="M395.08,232.12c0.56,1.81,2.23,2.99,4.12,2.99c1.41,0,2.77-0.54,3.5-1.35h4.15c-0.96,2.79-4.2,5.02-7.51,5.02
			c-4.54,0-8.24-3.67-8.24-8.21c0-4.63,3.61-8.44,8.3-8.44c4.46,0,8.01,3.84,8.01,8.21c0,0.59-0.11,1.18-0.2,1.78H395.08z
			 M403.63,228.79c-0.62-1.86-2.34-2.99-4.26-2.99c-1.86,0-3.78,1.18-4.35,2.99H403.63z"/>
	</g>
	<path class="st1" d="M118.25,90.06v57.45c0,6.43,0.39,18.12,12.34,18.12c12.08,0,12.08-10.54,12.08-18.12V90.06h24.29v57.45
		c0,15.94-3.47,23.01-9.51,29.18c-6.17,6.3-14.78,10.28-26.61,10.28c-6.94,0-19.54-1.67-27.38-10.15
		c-7.84-8.61-9.51-15.29-9.51-29.3V90.06H118.25z"/>
	<path class="st1" d="M178.53,113.84h20.05v7.84h0.13h0.26c4.24-5.4,11.31-10.28,22.24-10.28c25.32,0,34.83,22.24,34.83,38.81
		c0,20.57-14.39,37.4-34.7,37.4c-12.85,0-18.89-6.17-21.46-8.87v30.2h-21.34v-95.1H178.53z M234.69,149.57
		c0-8.48-6.17-18.25-17.86-18.25c-11.7,0-17.87,9.77-17.87,18.25c0,9,6.68,18.12,17.87,18.12
		C228.01,167.69,234.69,158.56,234.69,149.57z"/>
	<path class="st0" d="M264.51,90.06h30.08c16.71,0,23.13,2.06,29.3,6.81c7.84,6.17,11.7,16.2,11.7,25.96
		c0,10.92-5.66,26.99-23.65,29.95l25.83,32.39h-27.76l-21.98-30.72h-0.26v30.72h-23.26L264.51,90.06L264.51,90.06z M287.77,137.87
		h8.61c14.27,0,15.94-9,15.94-13.62c0-8.61-6.3-12.85-15.68-12.85h-8.87V137.87z"/>
	<path class="st0" d="M417.97,185.17h-21.34v-7.71h-0.26c-3.6,6.94-12.47,10.15-20.82,10.15c-22.62,0-35.86-17.74-35.86-38.17
		c0-23.39,16.84-38.04,35.86-38.04c11.7,0,18.25,5.66,20.82,10.03h0.26v-7.58h21.34V185.17z M378.77,167.69
		c13.37,0,17.87-11.31,17.87-18.25c0-8.61-5.91-18.12-17.99-18.12c-12.21,0-17.61,10.28-17.61,18.38
		C361.03,156.38,365.92,167.69,378.77,167.69z"/>
	<path class="st0" d="M455.23,113.84h10.28v16.19h-10.28v55.14h-21.34v-55.14h-10.54v-16.19h10.54V90.06h21.34V113.84z"/>
	<path class="st0" d="M539.03,162.81c-3.47,7.97-8.48,14.14-14.52,18.25c-5.91,4.24-12.98,6.43-20.31,6.43
		c-20.44,0-37.79-16.58-37.79-37.79c0-19.92,15.68-38.3,37.4-38.3c21.72,0,37.66,17.22,37.66,38.94c0,2.83-0.26,3.99-0.51,5.66
		h-53.47c1.29,8.48,8.35,13.5,16.71,13.5c6.55,0,10.02-2.96,12.98-6.68L539.03,162.81L539.03,162.81z M520.13,141.6
		c-0.9-4.24-5.14-12.21-16.19-12.21s-15.29,7.97-16.19,12.21H520.13z"/>
</g>
</svg>
